<?xml version="1.0" encoding="iso-8859-1"?>
<!-- Generator: Adobe Illustrator 16.0.0, SVG Export Plug-In . SVG Version: 6.00 Build 0)  -->
<!DOCTYPE svg PUBLIC "-//W3C//DTD SVG 1.1//EN" "http://www.w3.org/Graphics/SVG/1.1/DTD/svg11.dtd">
<svg version="1.1" id="Capa_1" xmlns="http://www.w3.org/2000/svg" xmlns:xlink="http://www.w3.org/1999/xlink" x="0px" y="0px"
	 width="792px" height="792px" viewBox="0 0 792 792" style="enable-background:new 0 0 792 792;" xml:space="preserve">
<g>
	<g>
		<g>
			<path d="M600.582,792h-409.17c-46.757,0-84.795-38.038-84.795-84.792V84.795C106.617,38.038,144.655,0,191.412,0h409.169
				c46.758,0,84.803,38.038,84.803,84.795v622.413C685.384,753.962,647.343,792,600.582,792z M191.412,10.586
				c-40.917,0-74.209,33.292-74.209,74.209v622.413c0,40.917,33.292,74.205,74.209,74.205h409.169
				c40.921,0,74.216-33.288,74.216-74.205V84.795c0-40.917-33.295-74.209-74.216-74.209H191.412z"/>
			<path d="M612.732,709.269H180.589c-8.571,0-15.544-6.977-15.544-15.548V80.748c0-8.571,6.973-15.541,15.544-15.541h432.139
				c8.567,0,15.538,6.973,15.538,15.541v612.973C628.269,702.292,621.3,709.269,612.732,709.269z M180.589,72.264
				c-4.679,0-8.487,3.808-8.487,8.483V693.72c0,4.684,3.808,8.49,8.487,8.49h432.139c4.676,0,8.479-3.808,8.479-8.49V80.748
				c0-4.679-3.805-8.483-8.479-8.483L180.589,72.264L180.589,72.264z"/>
			<path d="M414.518,756.51h-36.041c-8.014,0-14.539-6.442-14.539-14.366c0-7.915,6.521-14.352,14.539-14.352h36.041
				c8.021,0,14.546,6.44,14.546,14.352C429.064,750.066,422.54,756.51,414.518,756.51z M378.478,734.85
				c-4.125,0-7.481,3.271-7.481,7.294c0,4.03,3.356,7.31,7.481,7.31h36.041c4.129,0,7.487-3.278,7.487-7.31
				c0-4.021-3.358-7.294-7.487-7.294H378.478z"/>
			<path d="M396.666,44.845c-4.69,0-8.504-3.811-8.504-8.497c0-4.704,3.814-8.529,8.504-8.529c4.697,0,8.52,3.825,8.52,8.529
				C405.184,41.034,401.363,44.845,396.666,44.845z M396.666,31.347c-2.742,0-4.976,2.244-4.976,5c0,2.738,2.23,4.968,4.976,4.968
				c2.749,0,4.99-2.227,4.99-4.968C401.656,33.591,399.418,31.347,396.666,31.347z"/>
		</g>
	</g>
</g>
<g>
</g>
<g>
</g>
<g>
</g>
<g>
</g>
<g>
</g>
<g>
</g>
<g>
</g>
<g>
</g>
<g>
</g>
<g>
</g>
<g>
</g>
<g>
</g>
<g>
</g>
<g>
</g>
<g>
</g>
</svg>
